<?xml version="1.0" encoding="UTF-8" standalone="no"?>
<!DOCTYPE svg PUBLIC "-//W3C//DTD SVG 1.1//EN" "http://www.w3.org/Graphics/SVG/1.1/DTD/svg11.dtd">
<svg width="100%" height="100%" viewBox="0 0 600 600" version="1.1" xmlns="http://www.w3.org/2000/svg" xmlns:xlink="http://www.w3.org/1999/xlink" xml:space="preserve" xmlns:serif="http://www.serif.com/" style="fill-rule:evenodd;clip-rule:evenodd;stroke-linejoin:round;stroke-miterlimit:2;">
    <g id="Artboard4" transform="matrix(1,0,0,1,-1299,0)">
        <rect x="1299" y="0" width="600" height="600" style="fill:none;"/>
        <path d="M1366.07,299.863L1366.07,299.861C1363.71,290.954 1364.37,282.894 1367.36,275.516C1365.94,266.41 1367.44,258.463 1371.19,251.439C1370.73,242.234 1373.05,234.486 1377.52,227.892C1378.02,218.69 1381.14,211.227 1386.27,205.136C1387.73,196.036 1391.61,188.941 1397.35,183.419C1399.75,174.522 1404.36,167.872 1410.64,162.979C1413.96,154.382 1419.24,148.25 1425.99,144.041C1430.2,135.838 1436.08,130.291 1443.24,126.811C1448.28,119.093 1454.71,114.191 1462.2,111.479C1468.02,104.329 1474.93,100.127 1482.65,98.212C1489.19,91.71 1496.5,88.252 1504.38,87.156C1511.56,81.372 1519.19,78.698 1527.15,78.432C1534.89,73.43 1542.76,71.568 1550.7,72.136C1558.93,67.97 1566.95,66.942 1574.79,68.336C1583.4,65.052 1591.49,64.868 1599.14,67.074C1608.04,64.709 1616.11,65.371 1623.48,68.364C1632.59,66.943 1640.54,68.444 1647.56,72.192C1656.77,71.731 1664.51,74.054 1671.11,78.516C1680.31,79.019 1687.77,82.14 1693.86,87.267C1702.96,88.729 1710.06,92.613 1715.58,98.348C1724.48,100.754 1731.13,105.358 1736.02,111.639C1744.62,114.961 1750.75,120.235 1754.96,126.993C1763.16,131.196 1768.71,137.082 1772.19,144.243C1779.91,149.28 1784.81,155.714 1787.52,163.2C1794.67,169.016 1798.87,175.927 1800.79,183.655C1807.29,190.187 1810.75,197.499 1811.84,205.385C1817.63,212.56 1820.3,220.194 1820.57,228.151C1825.57,235.892 1827.43,243.764 1826.86,251.705C1831.03,259.926 1832.06,267.949 1830.66,275.788C1833.95,284.4 1834.13,292.486 1831.93,300.136C1834.29,309.044 1833.63,317.105 1830.64,324.483C1832.06,333.589 1830.56,341.537 1826.81,348.561C1827.27,357.766 1824.95,365.514 1820.48,372.108C1819.98,381.31 1816.86,388.773 1811.73,394.864C1810.27,403.964 1806.39,411.059 1800.65,416.581C1798.25,425.478 1793.64,432.128 1787.36,437.021C1784.04,445.618 1778.77,451.75 1772.01,455.959C1767.8,464.162 1761.92,469.709 1754.76,473.189C1749.72,480.907 1743.29,485.809 1735.8,488.521C1729.98,495.671 1723.07,499.873 1715.35,501.788C1708.81,508.29 1701.5,511.748 1693.62,512.844C1686.44,518.628 1678.81,521.302 1670.85,521.568C1663.11,526.57 1655.24,528.432 1647.3,527.864C1639.07,532.03 1631.05,533.058 1623.21,531.664C1614.6,534.948 1606.51,535.132 1598.86,532.926C1589.96,535.291 1581.89,534.629 1574.52,531.636C1565.41,533.057 1557.46,531.556 1550.44,527.808C1541.23,528.269 1533.49,525.946 1526.89,521.484C1517.69,520.981 1510.23,517.86 1504.14,512.733C1495.04,511.271 1487.94,507.387 1482.42,501.652C1473.52,499.246 1466.87,494.642 1461.98,488.361C1453.38,485.039 1447.25,479.765 1443.04,473.006C1434.84,468.804 1429.29,462.918 1425.81,455.757C1418.09,450.72 1413.19,444.286 1410.48,436.8C1403.33,430.984 1399.13,424.073 1397.21,416.345C1390.71,409.813 1387.25,402.501 1386.16,394.615C1380.37,387.44 1377.7,379.806 1377.43,371.849C1372.43,364.108 1370.57,356.236 1371.14,348.295C1366.97,340.074 1365.94,332.051 1367.34,324.212C1364.05,315.601 1363.87,307.516 1366.07,299.863Z" style="fill:rgb(242,242,242);"/>
        <path d="M1373.25,299.955C1370.48,291.184 1371.16,283.39 1374.49,276.358C1372.65,267.346 1374.14,259.665 1378.19,253.019C1377.3,243.865 1379.59,236.382 1384.31,230.196C1384.39,220.999 1387.44,213.796 1392.78,208.137C1393.82,198.998 1397.61,192.155 1403.51,187.084C1405.5,178.104 1409.99,171.695 1416.39,167.269C1419.3,158.546 1424.44,152.641 1431.26,148.908C1435.07,140.537 1440.8,135.201 1447.98,132.202C1452.64,124.276 1458.89,119.567 1466.34,117.335C1471.81,109.94 1478.52,105.91 1486.16,104.469C1492.37,97.686 1499.46,94.379 1507.22,93.746C1514.11,87.649 1521.5,85.101 1529.28,85.282C1536.77,79.938 1544.39,78.178 1552.11,79.17C1560.11,74.639 1567.88,73.685 1575.45,75.478C1583.88,71.808 1591.7,71.671 1599.05,74.246C1607.82,71.478 1615.61,72.159 1622.64,75.488C1631.65,73.651 1639.34,75.144 1645.98,79.189C1655.13,78.304 1662.62,80.592 1668.8,85.309C1678,85.386 1685.2,88.444 1690.86,93.782C1700,94.82 1706.85,98.613 1711.92,104.514C1720.9,106.502 1727.31,110.989 1731.73,117.388C1740.45,120.303 1746.36,125.436 1750.09,132.262C1758.46,136.074 1763.8,141.796 1766.8,148.975C1774.72,153.64 1779.43,159.889 1781.66,167.342C1789.06,172.81 1793.09,179.517 1794.53,187.162C1801.31,193.373 1804.62,200.464 1805.25,208.219C1811.35,215.105 1813.9,222.503 1813.72,230.281C1819.06,237.767 1820.82,245.391 1819.83,253.107C1824.36,261.111 1825.32,268.876 1823.52,276.447C1827.19,284.88 1827.33,292.703 1824.75,300.045C1827.52,308.816 1826.84,316.61 1823.51,323.642C1825.35,332.654 1823.86,340.335 1819.81,346.981C1820.7,356.135 1818.41,363.618 1813.69,369.804C1813.61,379.001 1810.56,386.204 1805.22,391.863C1804.18,401.002 1800.39,407.845 1794.49,412.916C1792.5,421.896 1788.01,428.305 1781.61,432.731C1778.7,441.454 1773.56,447.359 1766.74,451.092C1762.93,459.463 1757.2,464.799 1750.03,467.798C1745.36,475.724 1739.11,480.433 1731.66,482.665C1726.19,490.06 1719.48,494.09 1711.84,495.531C1705.63,502.314 1698.54,505.621 1690.78,506.254C1683.89,512.351 1676.5,514.899 1668.72,514.718C1661.23,520.062 1653.61,521.822 1645.89,520.83C1637.89,525.361 1630.12,526.315 1622.55,524.522C1614.12,528.192 1606.3,528.329 1598.95,525.754C1590.18,528.522 1582.39,527.841 1575.36,524.512C1566.35,526.349 1558.66,524.856 1552.02,520.811C1542.87,521.696 1535.38,519.408 1529.2,514.691C1520,514.614 1512.8,511.556 1507.14,506.218C1498,505.18 1491.15,501.387 1486.08,495.486C1477.1,493.498 1470.69,489.011 1466.27,482.612C1457.55,479.697 1451.64,474.564 1447.91,467.738C1439.54,463.926 1434.2,458.204 1431.2,451.025C1423.28,446.36 1418.57,440.111 1416.34,432.658C1408.94,427.19 1404.91,420.483 1403.47,412.838C1396.69,406.627 1393.38,399.536 1392.75,391.781C1386.65,384.895 1384.1,377.497 1384.28,369.719C1378.94,362.233 1377.18,354.609 1378.17,346.893C1373.64,338.889 1372.68,331.124 1374.48,323.553C1370.81,315.12 1370.67,307.297 1373.25,299.955ZM1406.12,408.47C1417.36,401.984 1453.99,380.834 1465.69,374.077C1463.92,370.89 1462.25,367.632 1460.7,364.31C1448.35,369.811 1409.64,387.046 1397.82,392.307C1398.51,398.218 1401.14,403.638 1406.12,408.47ZM1418.52,428.037C1418.52,428.037 1474.18,387.595 1474.18,387.595C1472.08,384.608 1470.09,381.543 1468.2,378.404C1456.49,385.168 1419.78,406.361 1408.57,412.83C1409.88,418.636 1413.05,423.753 1418.52,428.037ZM1382.05,343.559C1394.73,340.863 1436.1,332.07 1449.31,329.262C1448.62,325.693 1448.05,322.079 1447.6,318.426C1434.15,319.84 1392.01,324.269 1379.14,325.622C1377.98,331.457 1378.79,337.423 1382.05,343.559ZM1642.56,516.955C1642.56,516.955 1628.26,449.69 1628.26,449.69C1624.69,450.385 1621.08,450.955 1617.43,451.396C1619.13,467.658 1622.95,503.929 1624.62,519.856C1630.46,521.025 1636.42,520.206 1642.56,516.955ZM1665,511.214L1643.75,445.817C1640.27,446.886 1636.74,447.833 1633.15,448.654C1636.55,464.645 1644.13,500.312 1647.46,515.974C1653.39,516.526 1659.24,515.088 1665,511.214ZM1573.38,519.797L1580.57,451.396C1576.92,450.955 1573.31,450.385 1569.74,449.69C1566.34,465.681 1558.76,501.35 1555.43,517.014C1560.62,519.928 1566.54,520.993 1573.38,519.797ZM1596.5,521.271L1596.5,452.48C1592.82,452.421 1589.16,452.23 1585.55,451.913C1583.84,468.175 1580.03,504.45 1578.35,520.379C1583.82,522.735 1589.82,523.175 1596.5,521.271ZM1619.64,520.32C1619.64,520.32 1612.45,451.913 1612.45,451.913C1608.84,452.23 1605.18,452.421 1601.5,452.48C1601.5,468.834 1601.5,505.312 1601.5,521.33C1607.18,523.102 1613.2,522.912 1619.64,520.32ZM1432.89,446.201C1442.54,437.517 1473.99,409.198 1484.03,400.153C1481.63,397.399 1479.33,394.559 1477.13,391.637C1466.18,399.589 1431.88,424.51 1421.41,432.117C1423.32,437.755 1427.01,442.512 1432.89,446.201ZM1528.25,509.668C1528.25,509.668 1549.5,444.271 1549.5,444.271C1546.02,443.079 1542.61,441.765 1539.26,440.334C1533.75,452.691 1516.52,491.396 1511.26,503.212C1515.73,507.142 1521.31,509.416 1528.25,509.668ZM1550.55,515.916L1564.85,448.654C1561.27,447.833 1557.73,446.886 1554.25,445.817C1549.2,461.365 1537.93,496.042 1532.98,511.27C1537.84,514.711 1543.62,516.39 1550.55,515.916ZM1387.79,365.999L1453.18,344.75C1452.11,341.269 1451.17,337.735 1450.35,334.153C1437.12,336.965 1395.68,345.773 1383.03,348.463C1382.47,354.388 1383.91,360.235 1387.79,365.999ZM1395.84,387.715C1407.69,382.44 1446.32,365.239 1458.67,359.744C1457.24,356.391 1455.92,352.976 1454.73,349.505C1441.87,353.684 1401.58,366.776 1389.28,370.773C1389.35,376.723 1391.39,382.388 1395.84,387.715ZM1449.08,462.763C1457.77,453.119 1486.09,421.665 1495.13,411.62C1492.46,409.129 1489.87,406.543 1487.38,403.867C1477.32,412.923 1445.81,441.296 1436.19,449.957C1438.68,455.364 1442.85,459.71 1449.08,462.763ZM1466.92,477.542L1507.36,421.874C1504.44,419.672 1501.6,417.368 1498.85,414.967C1489.79,425.025 1461.42,456.535 1452.76,466.153C1455.8,471.272 1460.39,475.157 1466.92,477.542ZM1819.32,279.357C1819.32,279.357 1750.91,286.547 1750.91,286.547C1751.23,290.163 1751.42,293.816 1751.48,297.5C1767.83,297.5 1804.31,297.5 1820.33,297.5C1822.1,291.819 1821.91,285.8 1819.32,279.357ZM1815.95,256.441C1815.95,256.441 1748.69,270.738 1748.69,270.738C1749.38,274.307 1749.95,277.921 1750.4,281.574C1766.66,279.865 1802.93,276.052 1818.86,274.378C1820.03,268.543 1819.21,262.577 1815.95,256.441ZM1810.21,234.001L1744.82,255.25C1745.89,258.731 1746.83,262.265 1747.65,265.847C1763.64,262.448 1799.31,254.867 1814.97,251.537C1815.53,245.612 1814.09,239.765 1810.21,234.001ZM1802.16,212.285L1739.33,240.256C1740.77,243.609 1742.08,247.024 1743.27,250.495C1758.82,245.443 1793.5,234.175 1808.73,229.227C1808.65,223.277 1806.61,217.612 1802.16,212.285ZM1686.72,503.158L1658.74,440.334C1655.39,441.765 1651.98,443.079 1648.51,444.271C1653.56,459.819 1664.83,494.497 1669.77,509.725C1675.72,509.655 1681.39,507.614 1686.72,503.158ZM1707.47,492.876L1673.08,433.306C1669.89,435.082 1666.63,436.747 1663.31,438.296C1669.96,453.232 1684.79,486.548 1691.31,501.178C1697.22,500.487 1702.64,497.864 1707.47,492.876ZM1727.04,480.481C1727.04,480.481 1686.6,424.817 1686.6,424.817C1683.61,426.918 1680.54,428.914 1677.4,430.8C1685.58,444.962 1703.82,476.555 1711.83,490.428C1717.64,489.122 1722.75,485.947 1727.04,480.481ZM1745.2,466.109C1745.2,466.109 1699.15,414.967 1699.15,414.967C1696.4,417.368 1693.56,419.672 1690.64,421.874C1700.25,435.107 1721.7,464.628 1731.12,477.59C1736.76,475.685 1741.51,471.993 1745.2,466.109ZM1761.76,449.917C1761.76,449.917 1710.62,403.867 1710.62,403.867C1708.13,406.543 1705.54,409.129 1702.87,411.62C1713.81,423.778 1738.23,450.899 1748.96,462.807C1754.36,460.323 1758.71,456.154 1761.76,449.917ZM1776.54,432.082L1720.87,391.637C1718.67,394.559 1716.37,397.399 1713.97,400.153C1726.13,411.1 1753.25,435.519 1765.15,446.241C1770.27,443.205 1774.16,438.605 1776.54,432.082ZM1789.38,412.801C1789.38,412.801 1729.8,378.404 1729.8,378.404C1727.91,381.543 1725.92,384.608 1723.82,387.595C1737.05,397.21 1766.57,418.655 1779.53,428.072C1784.3,424.518 1787.69,419.536 1789.38,412.801ZM1800.12,392.283C1800.12,392.283 1737.3,364.31 1737.3,364.31C1735.75,367.632 1734.08,370.89 1732.31,374.077C1746.47,382.254 1778.06,400.492 1791.93,408.5C1796.3,404.466 1799.15,399.159 1800.12,392.283ZM1808.67,370.754C1808.67,370.754 1743.27,349.505 1743.27,349.505C1742.08,352.976 1740.77,356.391 1739.33,359.744C1754.27,366.394 1787.58,381.226 1802.21,387.739C1806.14,383.27 1808.42,377.694 1808.67,370.754ZM1814.92,348.45L1747.65,334.153C1746.83,337.735 1745.89,341.269 1744.82,344.75C1760.37,349.802 1795.04,361.069 1810.27,366.017C1813.71,361.162 1815.39,355.379 1814.92,348.45ZM1818.8,325.616L1750.4,318.426C1749.95,322.079 1749.38,325.693 1748.69,329.262C1764.68,332.661 1800.35,340.242 1816.01,343.572C1818.93,338.383 1819.99,332.457 1818.8,325.616ZM1820.27,302.5L1751.48,302.5C1751.42,306.184 1751.23,309.837 1750.91,313.453C1767.17,315.162 1803.45,318.975 1819.38,320.649C1821.74,315.184 1822.17,309.179 1820.27,302.5ZM1791.88,191.53L1732.31,225.923C1734.08,229.11 1735.75,232.368 1737.3,235.69C1752.23,229.04 1785.55,214.207 1800.18,207.693C1799.49,201.782 1796.86,196.362 1791.88,191.53ZM1779.48,171.963C1779.48,171.963 1723.82,212.405 1723.82,212.405C1725.92,215.392 1727.91,218.457 1729.8,221.596C1743.96,213.419 1775.56,195.179 1789.43,187.17C1788.12,181.364 1784.95,176.247 1779.48,171.963ZM1765.11,153.799C1753.19,164.529 1726.11,188.911 1713.97,199.847C1716.37,202.601 1718.67,205.441 1720.87,208.363C1734.11,198.749 1763.63,177.301 1776.59,167.883C1774.68,162.245 1770.99,157.488 1765.11,153.799ZM1748.92,137.237C1748.92,137.237 1702.87,188.38 1702.87,188.38C1705.54,190.871 1708.13,193.457 1710.62,196.133C1722.78,185.186 1749.9,160.766 1761.81,150.043C1759.32,144.636 1755.15,140.29 1748.92,137.237ZM1731.08,122.458L1690.64,178.126C1693.56,180.328 1696.4,182.632 1699.15,185.033C1710.1,172.874 1734.52,145.755 1745.24,133.847C1742.2,128.728 1737.61,124.843 1731.08,122.458ZM1711.8,109.624C1711.8,109.624 1677.4,169.2 1677.4,169.2C1680.54,171.086 1683.61,173.082 1686.6,175.183C1696.21,161.949 1717.65,132.432 1727.07,119.47C1723.52,114.698 1718.54,111.314 1711.8,109.624ZM1378.68,320.643C1378.68,320.643 1447.09,313.453 1447.09,313.453C1446.77,309.837 1446.58,306.184 1446.52,302.5C1432.99,302.5 1390.61,302.5 1377.67,302.5C1375.9,308.181 1376.09,314.2 1378.68,320.643ZM1533,88.786L1554.25,154.183C1557.73,153.114 1561.27,152.167 1564.85,151.346C1562.04,138.117 1553.23,96.677 1550.54,84.026C1544.61,83.474 1538.77,84.912 1533,88.786ZM1511.29,96.842C1516.56,108.69 1533.76,147.324 1539.26,159.666C1542.61,158.235 1546.02,156.921 1549.5,155.729C1545.32,142.867 1532.22,102.576 1528.23,90.275C1522.28,90.345 1516.61,92.386 1511.29,96.842ZM1490.53,107.124C1497.02,118.358 1518.17,154.991 1524.92,166.694C1528.11,164.918 1531.37,163.253 1534.69,161.704C1529.19,149.349 1511.95,110.639 1506.69,98.822C1500.78,99.513 1495.36,102.136 1490.53,107.124ZM1470.96,119.519C1470.96,119.519 1511.4,175.183 1511.4,175.183C1514.39,173.082 1517.46,171.086 1520.6,169.2C1513.83,157.485 1492.64,120.778 1486.17,109.572C1480.36,110.878 1475.25,114.053 1470.96,119.519ZM1452.8,133.891C1461.48,143.535 1489.8,174.987 1498.85,185.033C1501.6,182.632 1504.44,180.328 1507.36,178.126C1499.41,167.18 1474.49,132.88 1466.88,122.41C1461.25,124.315 1456.49,128.007 1452.8,133.891ZM1436.24,150.083C1445.88,158.767 1477.34,187.088 1487.38,196.133C1489.87,193.457 1492.46,190.871 1495.13,188.38C1486.08,178.323 1457.7,146.811 1449.04,137.193C1443.64,139.677 1439.29,143.846 1436.24,150.083ZM1421.46,167.918L1477.13,208.363C1479.33,205.441 1481.63,202.601 1484.03,199.847C1473.98,190.791 1442.46,162.42 1432.85,153.759C1427.73,156.795 1423.84,161.395 1421.46,167.918ZM1408.62,187.199C1408.62,187.199 1468.2,221.596 1468.2,221.596C1470.09,218.457 1472.08,215.392 1474.18,212.405C1463.24,204.451 1428.94,179.534 1418.47,171.928C1413.7,175.482 1410.31,180.464 1408.62,187.199ZM1397.88,207.717C1397.88,207.717 1460.7,235.69 1460.7,235.69C1462.25,232.368 1463.92,229.11 1465.69,225.923C1453.98,219.158 1417.28,197.969 1406.07,191.5C1401.7,195.534 1398.85,200.841 1397.88,207.717ZM1389.33,229.246C1389.33,229.246 1454.73,250.495 1454.73,250.495C1455.92,247.024 1457.24,243.609 1458.67,240.256C1446.31,234.754 1407.6,217.522 1395.79,212.261C1391.86,216.73 1389.58,222.306 1389.33,229.246ZM1383.08,251.55L1450.35,265.847C1451.17,262.265 1452.11,258.731 1453.18,255.25C1440.32,251.071 1400.03,237.98 1387.73,233.983C1384.29,238.838 1382.61,244.621 1383.08,251.55ZM1379.2,274.384L1447.6,281.574C1448.05,277.921 1448.62,274.307 1449.31,270.738C1436.08,267.927 1394.64,259.118 1381.99,256.428C1379.07,261.617 1378.01,267.543 1379.2,274.384ZM1377.73,297.5L1446.52,297.5C1446.58,293.816 1446.77,290.163 1447.09,286.547C1433.63,285.133 1391.49,280.703 1378.62,279.351C1376.27,284.816 1375.83,290.821 1377.73,297.5ZM1599,151.5C1517.04,151.5 1450.5,218.041 1450.5,300C1450.5,381.959 1517.04,448.5 1599,448.5C1680.96,448.5 1747.5,381.959 1747.5,300C1747.5,218.041 1680.96,151.5 1599,151.5ZM1599,166C1672.96,166 1733,226.043 1733,300C1733,373.957 1672.96,434 1599,434C1525.04,434 1465,373.957 1465,300C1465,226.043 1525.04,166 1599,166ZM1599,170C1527.25,170 1469,228.251 1469,300C1469,371.749 1527.25,430 1599,430C1670.75,430 1729,371.749 1729,300C1729,228.251 1670.75,170 1599,170ZM1691.28,98.876C1691.28,98.876 1663.31,161.704 1663.31,161.704C1666.63,163.253 1669.89,164.918 1673.08,166.694C1681.25,152.531 1699.49,120.943 1707.5,107.072C1703.47,102.697 1698.16,99.853 1691.28,98.876ZM1669.75,90.332C1669.75,90.332 1648.51,155.729 1648.51,155.729C1651.98,156.921 1655.39,158.235 1658.74,159.666C1665.39,144.729 1680.23,111.417 1686.74,96.788C1682.27,92.858 1676.69,90.584 1669.75,90.332ZM1647.45,84.084L1633.15,151.346C1636.74,152.167 1640.27,153.114 1643.75,154.183C1648.8,138.635 1660.07,103.958 1665.02,88.73C1660.16,85.289 1654.38,83.61 1647.45,84.084ZM1624.62,80.203L1617.43,148.604C1621.08,149.045 1624.69,149.615 1628.26,150.31C1631.07,137.082 1639.88,95.639 1642.57,82.986C1637.38,80.072 1631.46,79.007 1624.62,80.203ZM1601.5,78.729L1601.5,147.52C1605.18,147.579 1608.84,147.77 1612.45,148.087C1613.87,134.635 1618.3,92.487 1619.65,79.621C1614.18,77.265 1608.18,76.825 1601.5,78.729ZM1578.36,79.68C1578.36,79.68 1585.55,148.087 1585.55,148.087C1589.16,147.77 1592.82,147.579 1596.5,147.52C1596.5,133.991 1596.5,91.608 1596.5,78.67C1590.82,76.898 1584.8,77.088 1578.36,79.68ZM1555.44,83.045C1558.14,95.731 1566.93,137.098 1569.74,150.31C1573.31,149.615 1576.92,149.045 1580.57,148.604C1579.16,135.15 1574.73,93.009 1573.38,80.144C1567.54,78.975 1561.58,79.794 1555.44,83.045ZM1486.2,490.376C1486.2,490.376 1520.6,430.8 1520.6,430.8C1517.46,428.914 1514.39,426.918 1511.4,424.817C1503.45,435.765 1478.53,470.06 1470.93,480.53C1474.48,485.302 1479.46,488.686 1486.2,490.376ZM1506.72,501.124C1506.72,501.124 1534.69,438.296 1534.69,438.296C1531.37,436.747 1528.11,435.082 1524.92,433.306C1518.16,445.023 1496.97,481.723 1490.5,492.928C1494.53,497.303 1499.84,500.147 1506.72,501.124Z" style="fill:rgb(16,19,24);"/>
    </g>
</svg>
