<svg width="auto" height="2ex" viewBox="0 0 110 110" version="1.1" xmlns="http://www.w3.org/2000/svg" xmlns:xlink="http://www.w3.org/1999/xlink" xml:space="preserve" xmlns:serif="http://www.serif.com/" style="fill-rule:evenodd;clip-rule:evenodd;stroke-linejoin:round;stroke-miterlimit:2;">
    <g id="g19" transform="matrix(0.219999,0,0,-0.219999,-21.9999,132)">
        <g id="g21">
            <g id="g27" transform="matrix(1,0,0,1,600,350)">
                <path id="path29" d="M0,0C0,138.071 -111.929,250 -250,250C-388.071,250 -500,138.071 -500,0C-500,-117.245 -419.285,-215.622 -310.394,-242.638L-310.394,-76.396L-361.946,-76.396L-361.946,0L-310.394,0L-310.394,32.919C-310.394,118.011 -271.886,157.451 -188.346,157.451C-172.508,157.451 -145.179,154.346 -133.999,151.24L-133.999,81.986C-139.9,82.607 -150.148,82.918 -162.881,82.918C-203.874,82.918 -219.713,67.39 -219.713,27.018L-219.713,0L-138.054,0L-152.082,-76.396L-219.713,-76.396L-219.713,-248.169C-95.927,-233.218 0,-127.818 0,0" style="fill-rule:nonzero;"/>
            </g>
            <g id="g31" transform="matrix(1,0,0,1,447.918,273.604)">
                <path id="path33" d="M0,0L14.029,76.396L-67.63,76.396L-67.63,103.415C-67.63,143.787 -51.792,159.314 -10.799,159.314C1.934,159.314 12.182,159.004 18.083,158.383L18.083,227.636C6.903,230.742 -20.426,233.848 -36.264,233.848C-119.803,233.848 -158.312,194.407 -158.312,109.315L-158.312,76.396L-209.864,76.396L-209.864,0L-158.312,0L-158.312,-166.242C-138.969,-171.04 -118.744,-173.604 -97.918,-173.604C-87.664,-173.604 -77.56,-172.972 -67.63,-171.773L-67.63,0L0,0Z" style="fill:white;fill-rule:nonzero;"/>
            </g>
        </g>
    </g>
</svg>
