<svg width="auto" height="2ex" viewBox="0 0 110 110" version="1.1" xmlns="http://www.w3.org/2000/svg" xmlns:xlink="http://www.w3.org/1999/xlink" xml:space="preserve" xmlns:serif="http://www.serif.com/" style="fill-rule:evenodd;clip-rule:evenodd;stroke-linejoin:round;stroke-miterlimit:2;">
    <g id="Instagram" transform="matrix(0.214844,0,0,0.214844,0,0)">
        <path d="M256,49.471C323.266,49.471 331.233,49.728 357.8,50.94C382.362,52.061 395.7,56.164 404.578,59.614C415.52,63.652 425.418,70.092 433.544,78.459C441.911,86.585 448.351,96.483 452.389,107.425C455.839,116.302 459.943,129.641 461.063,154.203C462.275,180.768 462.532,188.735 462.532,256.003C462.532,323.271 462.275,331.236 461.063,357.803C459.942,382.365 455.838,395.703 452.389,404.581C443.918,426.541 426.538,443.921 404.578,452.392C395.701,455.842 382.362,459.946 357.8,461.066C331.24,462.278 323.273,462.535 256,462.535C188.727,462.535 180.763,462.278 154.2,461.066C129.638,459.945 116.3,455.841 107.422,452.392C96.48,448.354 86.582,441.914 78.456,433.547C70.089,425.421 63.649,415.523 59.611,404.581C56.161,395.704 52.057,382.365 50.937,357.803C49.725,331.239 49.468,323.271 49.468,256.003C49.468,188.735 49.725,180.77 50.937,154.203C52.058,129.641 56.161,116.303 59.611,107.425C63.65,96.483 70.09,86.584 78.458,78.458C86.584,70.091 96.482,63.651 107.424,59.613C116.301,56.163 129.64,52.059 154.202,50.939C180.767,49.727 188.734,49.47 256.002,49.47M256.002,4.079C187.584,4.079 179.002,4.369 152.136,5.595C125.321,6.819 107.009,11.077 90.985,17.305C74.176,23.63 58.948,33.547 46.365,46.362C33.547,58.944 23.628,74.172 17.3,90.982C11.077,107.007 6.819,125.319 5.6,152.134C4.369,179 4.079,187.582 4.079,256C4.079,324.418 4.369,333 5.6,359.866C6.824,386.681 11.082,404.993 17.31,421.017C23.635,437.826 33.552,453.054 46.367,465.637C58.95,478.452 74.178,488.369 90.987,494.694C107.012,500.922 125.324,505.18 152.138,506.404C179.008,507.63 187.587,507.92 256.004,507.92C324.421,507.92 333.004,507.63 359.87,506.404C386.685,505.18 404.997,500.922 421.021,494.694C454.843,481.613 481.617,454.839 494.698,421.017C500.926,404.992 505.184,386.68 506.408,359.866C507.634,332.996 507.924,324.417 507.924,256C507.924,187.583 507.634,179 506.408,152.134C505.184,125.319 500.926,107.007 494.698,90.983C488.373,74.174 478.456,58.946 465.641,46.363C453.058,33.546 437.828,23.627 421.018,17.3C404.993,11.077 386.681,6.819 359.866,5.6C333,4.369 324.418,4.079 256,4.079L256.002,4.079ZM256,126.635C185.032,126.635 126.635,185.032 126.635,256C126.635,326.968 185.032,385.365 256,385.365C326.968,385.365 385.365,326.968 385.365,256C385.365,185.032 326.968,126.635 256,126.635ZM256,339.973C209.934,339.972 172.028,302.066 172.028,256C172.028,209.934 209.935,172.027 256.001,172.027C302.067,172.027 339.974,209.934 339.974,256C339.973,302.066 302.066,339.973 256,339.973ZM390.476,91.294C407.16,91.294 420.706,104.84 420.706,121.524C420.706,138.208 407.16,151.754 390.476,151.754C373.792,151.754 360.246,138.208 360.246,121.524C360.246,104.84 373.792,91.294 390.476,91.294Z" style="fill-rule:nonzero;"/>
    </g>
</svg>
